<svg width="48" height="48" viewBox="0 0 48 48" fill="none" xmlns="http://www.w3.org/2000/svg">
<rect width="48" height="48" rx="6" fill="#CCFAE1"/>
<path d="M19.7766 31.2531C19.7766 31.3469 19.6687 31.4219 19.5328 31.4219C19.3781 31.4359 19.2703 31.3609 19.2703 31.2531C19.2703 31.1594 19.3781 31.0844 19.5141 31.0844C19.6547 31.0703 19.7766 31.1453 19.7766 31.2531ZM18.3188 31.0422C18.2859 31.1359 18.3797 31.2437 18.5203 31.2719C18.6422 31.3187 18.7828 31.2719 18.8109 31.1781C18.8391 31.0844 18.75 30.9766 18.6094 30.9344C18.4875 30.9016 18.3516 30.9484 18.3188 31.0422ZM20.3906 30.9625C20.2547 30.9953 20.1609 31.0844 20.175 31.1922C20.1891 31.2859 20.3109 31.3469 20.4516 31.3141C20.5875 31.2812 20.6812 31.1922 20.6672 31.0984C20.6531 31.0094 20.5266 30.9484 20.3906 30.9625ZM23.475 13C16.9734 13 12 17.9359 12 24.4375C12 29.6359 15.2719 34.0844 19.9453 35.65C20.5453 35.7578 20.7563 35.3875 20.7563 35.0828C20.7563 34.7922 20.7422 33.1891 20.7422 32.2047C20.7422 32.2047 17.4609 32.9078 16.7719 30.8078C16.7719 30.8078 16.2375 29.4437 15.4688 29.0922C15.4688 29.0922 14.3953 28.3562 15.5437 28.3703C15.5437 28.3703 16.7109 28.4641 17.3531 29.5797C18.3797 31.3891 20.1 30.8687 20.7703 30.5594C20.8781 29.8094 21.1828 29.2891 21.5203 28.9797C18.9 28.6891 16.2563 28.3094 16.2563 23.8C16.2563 22.5109 16.6125 21.8641 17.3625 21.0391C17.2406 20.7344 16.8422 19.4781 17.4844 17.8562C18.4641 17.5516 20.7188 19.1219 20.7188 19.1219C21.6562 18.8594 22.6641 18.7234 23.6625 18.7234C24.6609 18.7234 25.6688 18.8594 26.6063 19.1219C26.6063 19.1219 28.8609 17.5469 29.8406 17.8562C30.4828 19.4828 30.0844 20.7344 29.9625 21.0391C30.7125 21.8687 31.1719 22.5156 31.1719 23.8C31.1719 28.3234 28.4109 28.6844 25.7906 28.9797C26.2219 29.35 26.5875 30.0531 26.5875 31.1547C26.5875 32.7344 26.5734 34.6891 26.5734 35.0734C26.5734 35.3781 26.7891 35.7484 27.3844 35.6406C32.0719 34.0844 35.25 29.6359 35.25 24.4375C35.25 17.9359 29.9766 13 23.475 13ZM16.5562 29.1672C16.4953 29.2141 16.5094 29.3219 16.5891 29.4109C16.6641 29.4859 16.7719 29.5188 16.8328 29.4578C16.8937 29.4109 16.8797 29.3031 16.8 29.2141C16.725 29.1391 16.6172 29.1062 16.5562 29.1672ZM16.05 28.7875C16.0172 28.8484 16.0641 28.9234 16.1578 28.9703C16.2328 29.0172 16.3266 29.0031 16.3594 28.9375C16.3922 28.8766 16.3453 28.8016 16.2516 28.7547C16.1578 28.7266 16.0828 28.7406 16.05 28.7875ZM17.5688 30.4562C17.4938 30.5172 17.5219 30.6578 17.6297 30.7469C17.7375 30.8547 17.8734 30.8687 17.9344 30.7938C17.9953 30.7328 17.9672 30.5922 17.8734 30.5031C17.7703 30.3953 17.6297 30.3813 17.5688 30.4562ZM17.0344 29.7672C16.9594 29.8141 16.9594 29.9359 17.0344 30.0438C17.1094 30.1516 17.2359 30.1984 17.2969 30.1516C17.3719 30.0906 17.3719 29.9688 17.2969 29.8609C17.2312 29.7531 17.1094 29.7063 17.0344 29.7672Z" fill="#09201B"/>
</svg>
