<svg width="48" height="48" viewBox="0 0 48 48" fill="none" xmlns="http://www.w3.org/2000/svg">
<rect width="48" height="48" rx="6" fill="#CCFAE1"/>
<path d="M14.771 24.2181C14.8959 23.8272 15.0445 23.0303 15.3909 22.33C17.0764 18.9286 19.6838 16.4547 23.1656 14.9518C23.8375 14.6622 24.6373 14.5695 25.3792 14.5657C26.3067 14.561 26.9285 15.2064 27.0099 16.1424C27.0525 16.6298 27.0468 17.1712 26.8793 17.6198C25.2297 22.0319 22.117 24.9866 17.7408 26.6466C17.5705 26.7109 17.3802 26.7279 17.1966 26.7526C15.707 26.957 14.7483 26.1128 14.771 24.2181ZM26.2234 20.9483C28.6424 20.7789 31.0207 20.6123 33.5126 20.4372C33.3309 20.264 33.2287 20.1504 33.1104 20.0558C30.9412 18.3163 28.7664 16.5844 26.6058 14.8345C26.3919 14.6613 26.2594 14.3887 25.9736 14.0102C26.902 14.0102 27.6525 14.0017 28.403 14.0121C29.3087 14.0253 30.2362 13.9373 31.1163 14.1001C33.0195 14.4521 34.035 15.6796 33.9991 17.6141C33.966 19.4274 33.7786 21.2379 33.6442 23.0483C33.4388 25.8203 33.223 28.5924 33.0091 31.3634C32.9722 31.8414 32.9277 32.3193 32.8795 32.8871C31.8735 31.9909 30.911 31.1344 29.9504 30.277C29.8264 30.1662 29.7232 30.0233 29.586 29.9353C28.4115 29.1876 27.9213 28.0728 27.6544 26.7402C27.3061 24.9989 26.796 23.2897 26.3569 21.5663C26.3077 21.3732 26.2717 21.1763 26.2225 20.9464L26.2234 20.9483ZM17.1531 31.5499C17.6708 31.4779 18.1553 31.4477 18.6172 31.3284C18.7989 31.282 19.0099 31.0606 19.0686 30.8751C19.504 29.4981 19.9033 28.1087 20.315 26.7251C20.351 26.604 20.4011 26.4866 20.4674 26.3059C22.9867 27.1122 25.4862 27.9128 28.0594 28.7362C26.7203 30.0877 25.2959 31.2205 23.7041 32.2389C26.5405 32.4556 29.3768 32.6723 32.2132 32.889C32.2132 32.925 32.2132 32.9619 32.2142 32.9979C31.6028 33.0414 30.9914 33.0868 30.38 33.1275C26.7723 33.3651 23.1656 33.6017 19.5579 33.8373C18.9844 33.8752 18.4099 33.9376 17.8373 33.9272C15.4089 33.8828 14.0328 32.5521 14.0016 30.1161C13.9836 28.7476 14.1246 27.3772 14.2117 26.0087C14.2183 25.9055 14.3659 25.8109 14.4483 25.7125C14.5704 25.8213 14.7483 25.9065 14.8079 26.0428C15.5328 27.7236 16.2408 29.4119 16.9534 31.0975C17.0111 31.2328 17.0726 31.3663 17.1531 31.5499Z" fill="#09201B"/>
</svg>
