<svg width="48" height="48" viewBox="0 0 48 48" fill="none" xmlns="http://www.w3.org/2000/svg">
<rect width="48" height="48" rx="6" fill="#CCFAE1"/>
<g clip-path="url(#clip0_6574_1574)">
<path d="M21.6743 24.8242L14.3864 32.1121C14.035 32.4636 13.4651 32.4636 13.1137 32.1121L12.2636 31.2621C11.9127 30.9112 11.912 30.3425 12.2621 29.9908L18.0379 24.1878L12.2621 18.3849C11.9121 18.0332 11.9128 17.4645 12.2636 17.1136L13.1137 16.2636C13.4651 15.9121 14.035 15.9121 14.3864 16.2636L21.6743 23.5514C22.0258 23.9029 22.0258 24.4727 21.6743 24.8242ZM36.0001 31.6878V30.4878C36.0001 29.9908 35.5971 29.5878 35.1001 29.5878H23.7C23.203 29.5878 22.8 29.9908 22.8 30.4878V31.6878C22.8 32.1849 23.203 32.5878 23.7 32.5878H35.1001C35.5971 32.5878 36.0001 32.1849 36.0001 31.6878Z" fill="#09201B"/>
</g>
<defs>
<clipPath id="clip0_6574_1574">
<rect width="24" height="24" fill="white" transform="translate(12 12)"/>
</clipPath>
</defs>
</svg>
